<mxfile host="app.diagrams.net" modified="2023-09-17T15:44:23.364Z" agent="Mozilla/5.0 (Windows NT 10.0; Win64; x64; rv:109.0) Gecko/20100101 Firefox/117.0" etag="Ty1M9QerJt3YXvGYvIcm" version="21.7.4" type="google">
  <diagram name="Page-1" id="G2TEt4IULpdhs9RluzcD">
    <mxGraphModel grid="1" page="1" gridSize="10" guides="1" tooltips="1" connect="1" arColumns="1" fold="1" pageScale="1" pageWidth="850" pageHeight="1100" math="0" shadow="0">
      <root>
        <mxCell id="0" />
        <mxCell id="1" parent="0" />
        <mxCell id="zHbaEQlo3mZxPaL0krSO-1" value="&lt;p style=&quot;margin:0px;margin-top:4px;text-align:center;&quot;&gt;&lt;i&gt;Database&lt;/i&gt;&lt;br&gt;&lt;br&gt;&lt;/p&gt;&lt;hr size=&quot;1&quot;&gt;&lt;p style=&quot;margin:0px;margin-left:4px;&quot;&gt;&lt;br&gt;&lt;/p&gt;&lt;hr size=&quot;1&quot;&gt;&lt;p style=&quot;margin:0px;margin-left:4px;&quot;&gt;+ Print_databas_eheader string&lt;br&gt;&lt;/p&gt;" style="verticalAlign=top;align=left;overflow=fill;fontSize=12;fontFamily=Helvetica;html=1;whiteSpace=wrap;" vertex="1" parent="1">
          <mxGeometry x="100" y="20" width="190" height="100" as="geometry" />
        </mxCell>
        <mxCell id="zHbaEQlo3mZxPaL0krSO-2" value="&lt;p style=&quot;margin:0px;margin-top:4px;text-align:center;&quot;&gt;&lt;br&gt;&lt;b&gt;Column&lt;/b&gt;&lt;br&gt;&lt;/p&gt;&lt;hr size=&quot;1&quot;&gt;&amp;nbsp;-&amp;nbsp; String Column_name&amp;nbsp; &lt;br&gt;&amp;nbsp;- String data_type&amp;nbsp; &lt;br&gt;&amp;nbsp;-int length&amp;nbsp; &lt;br&gt;&amp;nbsp;-String default_value&amp;nbsp; &lt;br&gt;&amp;nbsp;-String identity&amp;nbsp; &lt;br&gt;&amp;nbsp;-int start&amp;nbsp; &lt;br&gt;&amp;nbsp;-int increment &lt;br&gt;&lt;br&gt;&amp;nbsp;-char nullable &lt;br&gt;&amp;nbsp;-string index &lt;br&gt;&lt;br&gt;&amp;nbsp;-char unique &lt;br&gt;&amp;nbsp;-char primary_key&amp;nbsp; &lt;br&gt;&amp;nbsp;-String foreign_key &lt;br&gt;&amp;nbsp;-String integrity &lt;br&gt;&amp;nbsp;-String references&amp;nbsp; &lt;br&gt;&amp;nbsp;-String description&amp;nbsp; &lt;br&gt;&lt;br&gt;&amp;nbsp;-String Column_text&amp;nbsp; &lt;br&gt;&amp;nbsp;-List&amp;lt;String&amp;gt; primary_keys &lt;br&gt;&amp;nbsp;-List&amp;lt;String&amp;gt; foreign_keys&amp;nbsp; &lt;br&gt;&amp;nbsp;-String length_text ;&lt;p style=&quot;margin:0px;margin-left:4px;&quot;&gt;&lt;br&gt;&lt;/p&gt;&lt;p style=&quot;margin:0px;margin-left:4px;&quot;&gt;&lt;br&gt;&lt;/p&gt;&lt;p style=&quot;margin:0px;margin-left:4px;&quot;&gt;&lt;br&gt;&lt;/p&gt;&lt;hr size=&quot;1&quot;&gt;&lt;p style=&quot;margin:0px;margin-left:4px;&quot;&gt;+ String Column_and_key_Gen &lt;br&gt;+ String audit_Column_gen&lt;br&gt;&lt;/p&gt;" style="verticalAlign=top;align=left;overflow=fill;fontSize=12;fontFamily=Helvetica;html=1;whiteSpace=wrap;" vertex="1" parent="1">
          <mxGeometry x="130" y="500" width="200" height="510" as="geometry" />
        </mxCell>
        <mxCell id="zHbaEQlo3mZxPaL0krSO-3" value="&lt;p style=&quot;margin:0px;margin-top:4px;text-align:center;&quot;&gt;&lt;i&gt;Header&lt;/i&gt;&lt;br&gt;&lt;br&gt;&lt;/p&gt;&lt;hr size=&quot;1&quot;&gt;&lt;br&gt;&lt;hr size=&quot;1&quot;&gt;&lt;p style=&quot;margin:0px;margin-left:4px;&quot;&gt;+ String active_table_header_gen &lt;br&gt;&lt;/p&gt;&lt;p style=&quot;margin:0px;margin-left:4px;&quot;&gt;+ String audit_table_header_Gen&lt;br&gt;&lt;/p&gt;&lt;p style=&quot;margin:0px;margin-left:4px;&quot;&gt;&lt;br&gt;&lt;/p&gt;" style="verticalAlign=top;align=left;overflow=fill;fontSize=12;fontFamily=Helvetica;html=1;whiteSpace=wrap;" vertex="1" parent="1">
          <mxGeometry x="130" y="320" width="220" height="140" as="geometry" />
        </mxCell>
        <mxCell id="zHbaEQlo3mZxPaL0krSO-4" value="&lt;p style=&quot;margin:0px;margin-top:4px;text-align:center;&quot;&gt;&lt;i&gt;Table&lt;/i&gt;&lt;br&gt;&lt;br&gt;&lt;/p&gt;&lt;hr size=&quot;1&quot;&gt;&lt;p style=&quot;margin:0px;margin-left:4px;&quot;&gt;-string name&lt;/p&gt;&lt;p style=&quot;margin:0px;margin-left:4px;&quot;&gt;-list [] columns&lt;/p&gt;&lt;p style=&quot;margin:0px;margin-left:4px;&quot;&gt;-Header header&lt;br&gt;&lt;/p&gt;&lt;hr size=&quot;1&quot;&gt;&lt;p style=&quot;margin:0px;margin-left:4px;&quot;&gt;+ String Gen_columns : string&amp;nbsp;&lt;/p&gt;&lt;p style=&quot;margin:0px;margin-left:4px;&quot;&gt;&amp;nbsp;+String Gen_primary_key ()&lt;br&gt;&lt;/p&gt;&lt;p style=&quot;margin:0px;margin-left:4px;&quot;&gt;&amp;nbsp;+String Gen_foreign_key() &lt;br&gt;&lt;/p&gt;&lt;p style=&quot;margin:0px;margin-left:4px;&quot;&gt;&amp;nbsp;+ String Gen_audit_table ()&lt;br&gt;&lt;/p&gt;&lt;p style=&quot;margin:0px;margin-left:4px;&quot;&gt;+ String  Gen_sp_update () &lt;br&gt;&lt;/p&gt;&lt;p style=&quot;margin:0px;margin-left:4px;&quot;&gt;+ String Gen_sp_insert ()&lt;br&gt;&lt;/p&gt;&lt;p style=&quot;margin:0px;margin-left:4px;&quot;&gt;+ String  Gen_sp_delete (0&lt;br&gt;&lt;/p&gt;&lt;p style=&quot;margin:0px;margin-left:4px;&quot;&gt;+ String Gen_sp_retreive_all ()&lt;br&gt;&lt;/p&gt;&lt;p style=&quot;margin:0px;margin-left:4px;&quot;&gt;+Gen_sp_retreive_by_key (0&lt;br&gt;&lt;/p&gt;&lt;p style=&quot;margin:0px;margin-left:4px;&quot;&gt;+ String Gen_insert_trigger(): &lt;br&gt;&lt;/p&gt;&lt;p style=&quot;margin:0px;margin-left:4px;&quot;&gt;+ String Gen_delete_trigger ()&lt;br&gt;&lt;/p&gt;&lt;p style=&quot;margin:0px;margin-left:4px;&quot;&gt;+ String Gen_update_trigger()&lt;br&gt;&lt;/p&gt;&lt;p style=&quot;margin:0px;margin-left:4px;&quot;&gt;&lt;br&gt;&lt;/p&gt;" style="verticalAlign=top;align=left;overflow=fill;fontSize=12;fontFamily=Helvetica;html=1;whiteSpace=wrap;" vertex="1" parent="1">
          <mxGeometry x="-190" y="330" width="260" height="320" as="geometry" />
        </mxCell>
        <mxCell id="zHbaEQlo3mZxPaL0krSO-5" value="&lt;p style=&quot;margin:0px;margin-top:4px;text-align:center;&quot;&gt;&lt;i&gt;comment_Box&lt;/i&gt;&lt;br&gt;&lt;br&gt;&lt;/p&gt;&lt;hr size=&quot;1&quot;&gt;&lt;hr size=&quot;1&quot;&gt;&lt;p style=&quot;margin:0px;margin-left:4px;&quot;&gt;&amp;nbsp;+ String Generate_C_Box(int) : &lt;br&gt;&lt;/p&gt;" style="verticalAlign=top;align=left;overflow=fill;fontSize=12;fontFamily=Helvetica;html=1;whiteSpace=wrap;" vertex="1" parent="1">
          <mxGeometry x="-170" y="720" width="190" height="100" as="geometry" />
        </mxCell>
        <mxCell id="zHbaEQlo3mZxPaL0krSO-7" value="&lt;p style=&quot;margin:0px;margin-top:4px;text-align:center;&quot;&gt;&lt;br&gt;&lt;b&gt;settings&lt;/b&gt;&lt;br&gt;&lt;/p&gt;&lt;hr size=&quot;1&quot;&gt;&lt;p style=&quot;margin:0px;margin-left:4px;&quot;&gt;+ String app_path&lt;/p&gt;&lt;p style=&quot;margin:0px;margin-left:4px;&quot;&gt;+ String txt_file_path&lt;/p&gt;&lt;p style=&quot;margin:0px;margin-left:4px;&quot;&gt;+ String dtabase_name&lt;/p&gt;&lt;p style=&quot;margin:0px;margin-left:4px;&quot;&gt;+ int table_count&lt;/p&gt;&lt;p style=&quot;margin:0px;margin-left:4px;&quot;&gt;ListList[] all_options&lt;/p&gt;&lt;p style=&quot;margin:0px;margin-left:4px;&quot;&gt;list&amp;lt;string&amp;gt; table_names&lt;br&gt;&lt;/p&gt;&lt;hr size=&quot;1&quot;&gt;&lt;p style=&quot;margin:0px;margin-left:4px;&quot;&gt;+ void set_default_options &lt;br&gt;&lt;/p&gt;&lt;p style=&quot;margin:0px;margin-left:4px;&quot;&gt;+ void set_all_options_on &lt;br&gt;&lt;/p&gt;&lt;p style=&quot;margin:0px;margin-left:4px;&quot;&gt;+ void set_all_options_off &lt;br&gt;&lt;/p&gt;" style="verticalAlign=top;align=left;overflow=fill;fontSize=12;fontFamily=Helvetica;html=1;whiteSpace=wrap;" vertex="1" parent="1">
          <mxGeometry x="500" y="220" width="190" height="220" as="geometry" />
        </mxCell>
        <mxCell id="zHbaEQlo3mZxPaL0krSO-8" value="&lt;p style=&quot;margin:0px;margin-top:4px;text-align:center;&quot;&gt;&lt;i&gt;DataAccess&lt;/i&gt;&lt;br&gt;&lt;br&gt;&lt;/p&gt;&lt;hr size=&quot;1&quot;&gt;&lt;hr size=&quot;1&quot;&gt;&lt;p style=&quot;margin:0px;margin-left:4px;&quot;&gt;+ void file_read&lt;/p&gt;&lt;p style=&quot;margin:0px;margin-left:4px;&quot;&gt;+ void file_write&lt;br&gt;&lt;/p&gt;" style="verticalAlign=top;align=left;overflow=fill;fontSize=12;fontFamily=Helvetica;html=1;whiteSpace=wrap;" vertex="1" parent="1">
          <mxGeometry x="500" y="100" width="190" height="100" as="geometry" />
        </mxCell>
        <mxCell id="zHbaEQlo3mZxPaL0krSO-9" value="" style="endArColumn=diamondThin;endFill=0;endSize=24;html=1;rounded=0;entryX=0.5;entryY=1;entryDx=0;entryDy=0;exitX=0.527;exitY=0.003;exitDx=0;exitDy=0;exitPerimeter=0;" edge="1" parent="1" source="zHbaEQlo3mZxPaL0krSO-4" target="zHbaEQlo3mZxPaL0krSO-1">
          <mxGeometry width="160" relative="1" as="geometry">
            <mxPoint x="280" y="210" as="sourcePoint" />
            <mxPoint x="500" y="390" as="targetPoint" />
          </mxGeometry>
        </mxCell>
        <mxCell id="zHbaEQlo3mZxPaL0krSO-11" value="" style="endArColumn=diamondThin;endFill=0;endSize=24;html=1;rounded=0;entryX=1;entryY=0.5;entryDx=0;entryDy=0;exitX=-0.005;exitY=0.329;exitDx=0;exitDy=0;exitPerimeter=0;" edge="1" parent="1" source="zHbaEQlo3mZxPaL0krSO-2" target="zHbaEQlo3mZxPaL0krSO-4">
          <mxGeometry width="160" relative="1" as="geometry">
            <mxPoint x="237" y="221" as="sourcePoint" />
            <mxPoint x="310" y="150" as="targetPoint" />
          </mxGeometry>
        </mxCell>
        <mxCell id="zHbaEQlo3mZxPaL0krSO-12" value="Use" style="endArColumn=open;endSize=12;dashed=1;html=1;rounded=0;exitX=0.5;exitY=1;exitDx=0;exitDy=0;entryX=0.584;entryY=-0.03;entryDx=0;entryDy=0;entryPerimeter=0;" edge="1" parent="1" source="zHbaEQlo3mZxPaL0krSO-4" target="zHbaEQlo3mZxPaL0krSO-5">
          <mxGeometry width="160" relative="1" as="geometry">
            <mxPoint x="-190" y="340" as="sourcePoint" />
            <mxPoint x="-30" y="340" as="targetPoint" />
          </mxGeometry>
        </mxCell>
        <mxCell id="zHbaEQlo3mZxPaL0krSO-13" value="Use" style="endArColumn=open;endSize=12;dashed=1;html=1;rounded=0;exitX=-0.03;exitY=0.431;exitDx=0;exitDy=0;exitPerimeter=0;" edge="1" parent="1" source="zHbaEQlo3mZxPaL0krSO-2" target="zHbaEQlo3mZxPaL0krSO-5">
          <mxGeometry width="160" relative="1" as="geometry">
            <mxPoint x="470" y="380" as="sourcePoint" />
            <mxPoint x="60" y="510" as="targetPoint" />
          </mxGeometry>
        </mxCell>
        <mxCell id="zHbaEQlo3mZxPaL0krSO-15" value="Use" style="endArColumn=open;endSize=12;dashed=1;html=1;rounded=0;exitX=1;exitY=0.5;exitDx=0;exitDy=0;entryX=0.5;entryY=0;entryDx=0;entryDy=0;" edge="1" parent="1" source="zHbaEQlo3mZxPaL0krSO-1" target="zHbaEQlo3mZxPaL0krSO-8">
          <mxGeometry width="160" relative="1" as="geometry">
            <mxPoint x="450" y="520" as="sourcePoint" />
            <mxPoint x="700" y="600" as="targetPoint" />
          </mxGeometry>
        </mxCell>
        <mxCell id="zHbaEQlo3mZxPaL0krSO-17" value="Use" style="endArColumn=open;endSize=12;dashed=1;html=1;rounded=0;exitX=1;exitY=0.5;exitDx=0;exitDy=0;entryX=0.016;entryY=0.436;entryDx=0;entryDy=0;entryPerimeter=0;" edge="1" parent="1" target="zHbaEQlo3mZxPaL0krSO-7">
          <mxGeometry width="160" relative="1" as="geometry">
            <mxPoint x="300" y="80" as="sourcePoint" />
            <mxPoint x="605" y="110" as="targetPoint" />
          </mxGeometry>
        </mxCell>
        <mxCell id="zHbaEQlo3mZxPaL0krSO-18" value="" style="endArColumn=block;startArColumn=block;endFill=1;startFill=1;html=1;rounded=0;entryX=0;entryY=0.5;entryDx=0;entryDy=0;" edge="1" parent="1" target="zHbaEQlo3mZxPaL0krSO-3">
          <mxGeometry width="160" relative="1" as="geometry">
            <mxPoint x="70" y="490" as="sourcePoint" />
            <mxPoint x="500" y="510" as="targetPoint" />
          </mxGeometry>
        </mxCell>
      </root>
    </mxGraphModel>
  </diagram>
</mxfile>
